<svg width="67" height="24" viewBox="0 0 67 24" fill="none" xmlns="http://www.w3.org/2000/svg">
<g id="logo">
<g id="Herro title">
<path d="M0 23.4825C0 23.4609 0.075407 23.159 0.226221 22.5768C0.377035 21.973 0.506304 21.3369 0.614028 20.6685C0.721753 19.9784 0.775615 19.3315 0.775615 18.7278L0.775615 5.20755C0.775615 4.60377 0.721753 3.96766 0.614028 3.29919C0.506304 2.60916 0.377035 1.97305 0.226221 1.39083C0.075407 0.787061 0 0.474393 0 0.45283L0 0.32345L9.98604 0.32345C12.2698 0.32345 14.1011 0.873315 15.48 1.97305C16.8589 3.07278 17.5483 4.54987 17.5483 6.40431C17.5483 8.17251 16.9666 9.57413 15.8032 10.6092C14.6613 11.6226 13.11 12.2372 11.1495 12.4528C13.11 12.9488 14.5643 14.0809 15.5123 15.8491C15.857 16.5175 16.2556 17.3154 16.708 18.2426C17.1605 19.1698 17.5052 19.8814 17.7422 20.3774C18.0007 20.8518 18.3239 21.3801 18.7117 21.9623C19.0995 22.5229 19.5196 23.0296 19.9721 23.4825V23.6119H14.8336C14.1873 23.0081 13.1316 20.9919 11.6665 17.5633C10.5031 14.8464 9.01652 13.283 7.20676 12.8733H5.0415L5.0415 18.7278C5.0415 19.6981 5.30004 21.283 5.81711 23.4825V23.6119H0L0 23.4825ZM5.0415 11.6119H8.43481C9.87832 11.6119 10.9879 11.1914 11.7635 10.3504C12.5607 9.50943 12.9592 8.25876 12.9592 6.59838C12.9592 4.98113 12.5822 3.73046 11.8281 2.84636C11.0741 1.9407 9.99681 1.48787 8.5964 1.48787L5.0415 1.48787L5.0415 11.6119ZM5.81711 12.8086C5.88175 12.8086 5.93561 12.8086 5.9787 12.8086C5.84943 12.8086 5.75248 12.8194 5.68784 12.841C5.70939 12.841 5.75248 12.8302 5.81711 12.8086Z" fill="white"/>
<path d="M21.3637 22.4798C21.5577 21.8976 21.73 21.3585 21.8808 20.8625C22.0316 20.3666 22.1717 19.7197 22.3009 18.9218C22.4518 18.124 22.5272 17.3908 22.5272 16.7224V5.23989C22.5272 4.7655 22.4733 4.24798 22.3656 3.68733C22.2579 3.12668 22.1394 2.66307 22.0101 2.2965C21.8808 1.90836 21.7408 1.52021 21.59 1.13207C21.4607 0.743934 21.3853 0.517519 21.3637 0.45283V0.32345L26.7607 0.32345L33.8382 18.2749L40.6249 0.32345L45.634 0.32345V0.45283C45.634 0.474393 45.5586 0.787061 45.4078 1.39083C45.257 1.97305 45.1277 2.60916 45.02 3.29919C44.9123 3.96766 44.8584 4.60377 44.8584 5.20755V18.7278C44.8584 19.3315 44.9123 19.9784 45.02 20.6685C45.1277 21.3369 45.257 21.973 45.4078 22.5768C45.5586 23.159 45.634 23.4609 45.634 23.4825V23.6119H39.8492V23.4825C40.3663 21.283 40.6249 19.6981 40.6249 18.7278V4.20485L33.3211 23.6119H31.8345V23.5795L31.5437 23.6119L23.9491 4.30189C23.9276 4.49596 23.9168 4.80863 23.9168 5.23989V16.7224C23.9168 17.3908 23.9814 18.124 24.1107 18.9218C24.2615 19.7197 24.4123 20.3666 24.5632 20.8625C24.714 21.3585 24.8863 21.9084 25.0802 22.5121C25.2741 23.0943 25.3819 23.407 25.4034 23.4501V23.6119L21.0406 23.6119V23.4501C21.0621 23.407 21.1698 23.0836 21.3637 22.4798Z" fill="white"/>
<path d="M50.9697 3.33154C53.0595 1.11051 55.7095 0 58.9197 0C61.0742 0 63.6057 0.495957 66.5143 1.48787V6.69542H66.3204C63.972 3.13747 61.6344 1.35849 59.3075 1.35849C57.4116 1.35849 55.8173 2.38275 54.5246 4.43127C53.2534 6.45822 52.6178 8.97035 52.6178 11.9677C52.6178 14.965 53.275 17.4987 54.5892 19.5687C55.925 21.6173 57.5085 22.6415 59.3398 22.6415C60.5248 22.6415 61.7206 22.1348 62.9271 21.1213C64.1551 20.0863 65.2862 18.7925 66.3204 17.2399H66.5143V22.5121C63.498 23.504 60.9126 24 58.7581 24C55.6772 24 53.0811 22.8787 50.9697 20.6361C48.8583 18.3935 47.8026 15.5148 47.8026 12C47.8026 8.44205 48.8583 5.55256 50.9697 3.33154Z" fill="white"/>
</g>
</g>
</svg>
